<?xml version="1.0" encoding="utf-8"?>
<!-- Generator: Adobe Illustrator 23.1.1, SVG Export Plug-In . SVG Version: 6.00 Build 0)  -->
<svg version="1.1" id="Camada_1" focusable="false" xmlns="http://www.w3.org/2000/svg" xmlns:xlink="http://www.w3.org/1999/xlink"
	 x="0px" y="0px" viewBox="0 0 640 512" style="enable-background:new 0 0 640 512;" xml:space="preserve">
<style type="text/css">
	.st0{fill:#355CE4;}
</style>
<path class="st0" d="M272,288h-64c-8.8,0-16-7.2-16-16v-64c0-8.8,7.2-16,16-16h64c8.8,0,16,7.2,16,16v37.1
	c11.1-12.9,27-21.1,44.8-21.1h136.9l6.6-7.5c2.2-2.7,3.4-6,3.6-9.5c-0.2-4-1.9-7.8-4.8-10.6L416,144V48c0-8.8-7.2-16-16-16h-32
	c-8.8,0-16,7.2-16,16v39.3L263.5,8.9C258,4,247.4,0,240.1,0s-17.9,4-23.5,8.9L4.8,196.4C1.9,199.2,0.2,203,0,207
	c0.2,3.4,1.4,6.7,3.5,9.4l18.8,21.3c2.8,2.9,6.6,4.6,10.7,4.8c3.4-0.2,6.7-1.4,9.3-3.5L64,219.9V384c0,17.7,14.3,32,32,32h176V288z
	 M629.3,448H592V288c0-17.7-12.9-32-28.8-32H332.8c-15.9,0-28.8,14.3-28.8,32v160h-37.3c-5.9,0-10.7,4.8-10.7,10.7v0v10.7
	c0.1,23.5,19.1,42.5,42.6,42.7h298.8c23.5-0.1,42.5-19.2,42.6-42.7v-10.7C640,452.8,635.2,448,629.3,448z M544,448H352V304h192V448z
	"/>
</svg>
