<?xml version="1.0" encoding="utf-8"?>
<!-- Generator: Adobe Illustrator 23.1.1, SVG Export Plug-In . SVG Version: 6.00 Build 0)  -->
<svg version="1.1" id="Camada_1" xmlns="http://www.w3.org/2000/svg" xmlns:xlink="http://www.w3.org/1999/xlink" x="0px" y="0px"
	 viewBox="0 0 520 81" style="enable-background:new 0 0 520 81;" xml:space="preserve">
<style type="text/css">
	.st0{fill:#355CE4;}
	.st1{fill:#FFFFFF;}
</style>
<path class="st0" d="M48.22,42h-7.78c-1.07,0-1.94-0.87-1.94-1.94v-7.78c0-1.07,0.87-1.94,1.94-1.94h7.78
	c1.07,0,1.94,0.87,1.94,1.94v4.51c1.35-1.57,3.28-2.57,5.44-2.57h16.64l0.81-0.92c0.26-0.33,0.42-0.73,0.44-1.15
	c-0.03-0.49-0.23-0.95-0.58-1.29l-7.2-6.37V12.83c0-1.07-0.87-1.94-1.94-1.94h-3.89c-1.07,0-1.94,0.87-1.94,1.94v4.78L47.19,8.08
	C46.52,7.49,45.24,7,44.34,7s-2.18,0.49-2.85,1.08L15.75,30.87c-0.35,0.34-0.55,0.8-0.58,1.29c0.02,0.42,0.17,0.82,0.43,1.14
	l2.28,2.59c0.34,0.35,0.81,0.55,1.3,0.58c0.41-0.02,0.81-0.17,1.14-0.42l2.63-2.32v19.94c0,2.15,1.74,3.89,3.89,3.89h21.39V42z
	 M91.65,61.44h-4.54V42c0-2.15-1.57-3.89-3.5-3.89h-28c-1.93,0-3.5,1.74-3.5,3.89v19.44h-4.54c-0.72,0-1.3,0.58-1.3,1.3v0v1.3
	c0.01,2.86,2.32,5.17,5.18,5.19h36.31c2.86-0.01,5.17-2.33,5.18-5.19v-1.3C92.95,62.02,92.36,61.44,91.65,61.44z M81.28,61.44H57.95
	v-17.5h23.33V61.44z"/>
<g>
	<g>
		<path class="st1" d="M114.03,68.84l-13.51-57.05h13.82l4.33,23.49c1.22,6.79,2.4,14.2,3.32,19.96h0.18
			c0.91-6.2,2.28-13.03,3.72-20.12l4.88-23.33h13.71l4.56,24.08c1.22,6.66,2.18,12.75,3.01,19.07h0.17
			c0.89-6.36,2.09-12.98,3.35-19.82l4.61-23.33h13.11l-14.71,57.05h-13.93l-4.86-24.56c-1.14-5.71-2.03-11.09-2.75-17.55h-0.17
			c-0.96,6.42-1.88,11.84-3.25,17.6l-5.45,24.52H114.03z"/>
		<path class="st1" d="M189.48,52.26c0.38,5.35,5.67,7.88,11.68,7.88c4.36,0,7.93-0.58,11.4-1.76l1.74,8.71
			c-4.29,1.75-9.46,2.62-15.01,2.62c-14.03,0-22.09-8.17-22.09-21.08c0-10.53,6.56-22.17,20.88-22.17c13.43,0,18.5,10.44,18.5,20.69
			c0,2.24-0.23,4.15-0.46,5.1H189.48z M204.6,43.44c0.02-3.1-1.36-8.4-7.22-8.4c-5.44,0-7.65,4.97-8,8.4H204.6z"/>
		<path class="st1" d="M223.9,68.84c0.18-2.74,0.34-7.67,0.34-12.37V8.74h12.88v23.6h0.17c2.46-3.56,6.76-5.87,12.5-5.87
			c9.95,0,17.19,8.22,17.09,20.92c0,14.92-9.45,22.37-18.95,22.37c-4.84,0-9.5-1.79-12.38-6.7h-0.18l-0.54,5.77H223.9z
			 M237.12,51.26c0,0.82,0.08,1.59,0.23,2.26c0.85,3.44,3.82,6.13,7.58,6.13c5.47,0,8.88-4.26,8.88-11.71
			c0-6.44-2.88-11.53-8.86-11.53c-3.55,0-6.75,2.6-7.57,6.35c-0.16,0.73-0.26,1.55-0.26,2.38V51.26z"/>
		<path class="st1" d="M317.17,67.27c-2.31,1.14-7.71,2.46-14.58,2.46c-19.75,0-29.94-12.34-29.94-28.61
			c0-19.45,13.94-30.22,31.16-30.22c6.71,0,11.8,1.31,14.04,2.53l-2.63,10.2c-2.56-1.12-6.23-2.14-10.84-2.14
			c-10.18,0-18.15,6.2-18.15,18.88c0,11.44,6.74,18.62,18.23,18.62c3.95,0,8.23-0.78,10.78-1.84L317.17,67.27z"/>
		<path class="st1" d="M366.09,47.71c0,15.14-10.72,22.06-21.83,22.06c-12.05,0-21.39-7.97-21.39-21.34
			c0-13.37,8.82-21.95,22.13-21.95C357.67,26.48,366.09,35.2,366.09,47.71z M336.14,48.13c0,7.07,2.99,12.43,8.47,12.43
			c5.02,0,8.2-5.03,8.2-12.5c0-6.11-2.35-12.39-8.19-12.39C338.48,35.68,336.14,41.99,336.14,48.13z"/>
		<path class="st1" d="M374.07,40.64c0-5.16-0.16-9.52-0.34-13.23h11.17l0.6,5.74h0.27c1.67-2.67,5.89-6.67,12.8-6.67
			c8.46,0,14.83,5.64,14.83,17.84v24.52h-12.9V45.88c0-5.34-1.91-8.99-6.55-8.99c-3.54,0-5.64,2.48-6.53,4.86
			c-0.33,0.81-0.45,2.03-0.45,3.18v23.9h-12.9V40.64z"/>
		<path class="st1" d="M463.79,8.74v47.72c0,4.7,0.16,9.6,0.34,12.37h-11.45l-0.54-6.07h-0.18c-2.61,4.65-7.62,7-12.97,7
			c-9.77,0-17.68-8.4-17.68-21.27c-0.06-13.91,8.67-22.02,18.54-22.02c5.12,0,9.04,1.82,10.89,4.68h0.17V8.74H463.79z M450.91,44.99
			c0-0.72-0.03-1.6-0.17-2.33c-0.73-3.46-3.54-6.29-7.47-6.29c-5.9,0-8.89,5.23-8.89,11.76c0,6.97,3.44,11.38,8.8,11.38
			c3.66,0,6.67-2.54,7.45-6.17c0.21-0.89,0.27-1.88,0.27-2.91V44.99z"/>
	</g>
</g>
</svg>
